{"title":"Koffee With Karan - Season 4 - Akshay Kumar - 19 Jan -AshishRock","uid":9513498,"size":211347817,"categoryP":"video","categoryS":"tv_shows","magnet":"?xt=urn:btih:832c433d717d12be23c4436b54e343b3db219d79&amp;dn=Koffee+With+Karan+-+Season+4+-+Akshay+Kumar+-+19+Jan+-AshishRock&amp;tr=udp%3A%2F%2Ftracker.openbittorrent.com%3A80&amp;tr=udp%3A%2F%2Fopen.demonii.com%3A1337&amp;tr=udp%3A%2F%2Ftracker.coppersurfer.tk%3A6969&amp;tr=udp%3A%2F%2Fexodus.desync.com%3A6969","seeders":2,"leechers":0,"uploader":"ashish.p","files":1,"time":1390466099,"description":"General \n\nComplete name : Koffee With Karan - Season 4 - Akshay Kumar - 19 Jan -AshishRocks- { DAKU RG }\nFormat : MPEG-4 \nFormat profile : Base Media \nCodec ID : isom \nFile size : 202 MiB \nDuration : 43mn 26s \nOverall bit rate mode : Variable \nOverall bit rate : 649 Kbps \nEncoded date : UTC 2014-01-21 02:05:53 \nTagged date : UTC 2014-01-21 02:05:53 \n\nVideo \n\nID : 1 \nFormat : AVC \nFormat/Info : Advanced Video Codec \nFormat profile : &lt;a class=&quot;__cf_email__&quot; href=&quot;/cdn-cgi/l/email-protection&quot; data-cfemail=&quot;b2ffd3dbdcf2fe819c82&quot;&gt;[email&amp;#160;protected]&lt;/a&gt;&lt;script cf-hash='f9e31' type=&quot;text/javascript&quot;&gt;\n/* &lt;![CDATA[ */!function(){try{var t=&quot;currentScript&quot;in document?document.currentScript:function(){for(var t=document.getElementsByTagName(&quot;script&quot;),e=t.length;e--;)if(t[e].getAttribute(&quot;cf-hash&quot;))return t[e]}();if(t&amp;&amp;t.previousSibling){var e,r,n,i,c=t.previousSibling,a=c.getAttribute(&quot;data-cfemail&quot;);if(a){for(e=&quot;&quot;,r=parseInt(a.substr(0,2),16),n=2;a.length-n;n+=2)i=parseInt(a.substr(n,2),16)^r,e+=String.fromCharCode(i);e=document.createTextNode(e),c.parentNode.replaceChild(e,c)}}}catch(u){}}();/* ]]&gt; */&lt;/script&gt; \nFormat settings, CABAC : Yes \nFormat settings, ReFrames : 3 frames \nCodec ID : avc1 \nCodec ID/Info : Advanced Video Coding \nDuration : 43mn 26s \nBit rate : 520 Kbps \nWidth : 854 pixels \nHeight : 480 pixels \nDisplay aspect ratio : 16:9 \nFrame rate mode : Constant \nFrame rate : 25.000 fps \nColor space : YUV \nChroma subsampling : 4:2:0 \nBit depth : 8 bits \nScan type : Progressive \nBits/(Pixel*Frame) : 0.051 \nStream size : 161 MiB (80%) \nEncoded date : UTC 2014-01-21 02:05:53 \nTagged date : UTC 2014-01-21 02:05:53 \n\nAudio \n\nID : 2 \nFormat : AAC \nFormat/Info : Advanced Audio Codec \nFormat profile : LC \nCodec ID : 40 \nDuration : 43mn 26s \nBit rate mode : Variable \nBit rate : 126 Kbps \nChannel(s) : 2 channels \nChannel positions : Front: L R \nSampling rate : 44.1 KHz \nCompression mode : Lossy \nStream size : 39.0 MiB (19%) \nEncoded date : UTC 2014-01-21 02:05:47 \nTagged date : UTC 2014-01-21 02:05:47 \n","torrent":{"xt":"urn:btih:832c433d717d12be23c4436b54e343b3db219d79","amp;dn":"Koffee+With+Karan+-+Season+4+-+Akshay+Kumar+-+19+Jan+-AshishRock","amp;tr":["udp%3A%2F%2Ftracker.openbittorrent.com%3A80","udp%3A%2F%2Fopen.demonii.com%3A1337","udp%3A%2F%2Ftracker.coppersurfer.tk%3A6969","udp%3A%2F%2Fexodus.desync.com%3A6969"],"infoHash":"832c433d717d12be23c4436b54e343b3db219d79","infoHashBuffer":{"type":"Buffer","data":[131,44,67,61,113,125,18,190,35,196,67,107,84,227,67,179,219,33,157,121]},"announce":[],"urlList":[]}}